<?xml version="1.0" encoding="utf-8"?>
<!-- Generator: Adobe Illustrator 19.2.1, SVG Export Plug-In . SVG Version: 6.00 Build 0)  -->
<svg version="1.1" xmlns="http://www.w3.org/2000/svg" xmlns:xlink="http://www.w3.org/1999/xlink" x="0px" y="0px"
	 viewBox="0 0 583.3 584" enable-background="new 0 0 583.3 584" xml:space="preserve">
<g id="Layer_2" display="none">
	<rect x="-7.4" y="-7.6" display="inline" fill="#DC7676" width="602.6" height="602.6"/>
</g>
<g id="Layer_1">
	<g id="XMLID_1_">
		<g id="XMLID_3_">
			<path id="XMLID_60_" fill="#F9E3D2" d="M365.4,495.4c5.4-2.8,9.3-6.2,12.7-5.2c3.9,1.1,3.6,4,1.1,7c-2.1,2.6-1.5,10.2-0.9,13.6
				c0.9,4.8,1.2,5.5,5.3,9.8c2.5,2.6,5.3,7.3,6.6,15.9c0.8,5.5-0.8,11.3-5.4,18.2c-2.2,3.3-6.6,5.8-10.3,6.1c-5.6,0.5-11.5,0-17.2,0
				c-6.3,0-10.7-2.2-13.5-8.2c-3.3-7.3-5.2-15.3-2-23.4c2.9-7.3,3.9-7.7,6.4-10.9c1.6-2.1,3.7-4.7,3.6-7.4
				c-0.1-6.3-3.1-6.8,0.8-10.4C356.1,497.2,361.3,497.5,365.4,495.4z"/>
			<path id="XMLID_59_" fill="#F9E3D2" d="M351.7,516.5c0.5-2.9-6-6.6-8.6-7.4c-4.4-1.3-8.8,0.2-12.5,2.7c-3.3,2.3-4.9,6.1-4.8,10
				c0.1,4.3,3.8,7.3,6.9,9.7c3.3,2.6,7,4.7,10.5,7.1c1.1-1.6,1.2-3.8,1.1-5.7c-5.4-0.4-15.1-8-13.8-14.1c0.6-3.1,4.8-5.4,7.6-5.7
				c3.8-0.5,6.7,1.7,9.5,4.2c1,0.9,2.4,2.5,3,3.2L351.7,516.5z"/>
			<path id="XMLID_58_" fill="#DC7676" d="M377.2,515.3c0,0,3,6.6,4.8,9.5c2.1,3.4,3.6,6.4,4.2,10.3c1.1,7.1-1.6,17.6-8.3,21.5
				c-3.5,2.1-7.1,0.2-11.1,0c-4.3-0.2-5.8,0.1-9.9,0.8c-4.4,0.7-8-2.1-10-5.8c-1.7-3.3-2.2-5.1-2.7-8.9c-0.8-5.5,0.1-10.5,1.2-13.8
				c0.8-2.2,3-5.8,4.2-7.9c1.7-2.9,3.7-6.1,3.7-6.1c1.9-1.2,5-0.1,7,0.3c2.8,0.6,5.6,1.4,8.4,1.6
				C369.8,516.9,373.5,517.5,377.2,515.3z"/>
			<g id="XMLID_47_">
				<path id="XMLID_57_" fill="#F79029" d="M352,537.6c0.7-0.5,1.4-0.9,2.1-1.2c0.8-0.3,1.6-0.5,2.3-0.5c0.8-0.1,1.6,0,2.4,0.1
					c0.8,0.1,1.6,0.3,2.3,0.7c0.7,0.3,1.4,0.8,2,1.3c0.6,0.5,1.2,1.1,1.6,1.7c0.5,0.7,0.9,1.4,1.2,2.1c0.3,0.8,0.4,1.5,0.5,2.3
					c0.1,0.8,0.1,1.6,0,2.4c-0.1,0.8-0.4,1.6-0.7,2.3c-0.3,0.7-0.7,1.4-1.2,2c-0.5,0.6-1,1.2-1.7,1.7c-0.7,0.5-1.4,0.9-2.1,1.1
					c-0.8,0.3-1.6,0.4-2.3,0.5c-0.8,0.1-1.6,0.1-2.4,0c-0.8-0.1-1.6-0.4-2.3-0.7c-0.7-0.3-1.4-0.7-2.1-1.2c-0.6-0.5-1.2-1.1-1.6-1.8
					c-0.5-0.7-0.9-1.4-1.2-2.1c-0.3-0.8-0.4-1.6-0.5-2.4c-0.1-0.8,0-1.6,0.1-2.4c0.1-0.8,0.3-1.6,0.6-2.3c0.3-0.7,0.8-1.4,1.3-2
					C350.8,538.7,351.4,538.1,352,537.6z"/>
				<path id="XMLID_56_" fill="#FFEFD5" d="M352.5,538.2c0.7-0.5,1.6-0.8,2.4-1.1c0.9-0.3,1.7-0.4,2.6-0.4c0.9,0,1.8,0,2.6,0.3
					c0.8,0.3,1.7,0.6,2.4,1.1c0.7,0.5,1.2,1.3,1.8,2c0.5,0.7,0.9,1.5,1.2,2.4c0.3,0.9,0.3,1.7,0.3,2.6c0,0.9,0.1,1.8-0.1,2.6
					c-0.3,0.8-0.7,1.7-1.2,2.4c-0.5,0.7-1.2,1.2-2,1.8c-0.7,0.5-1.6,0.8-2.4,1.1c-0.9,0.3-1.7,0.5-2.6,0.5c-0.9,0-1.8-0.1-2.6-0.4
					c-0.8-0.3-1.7-0.6-2.4-1.1c-0.7-0.5-1.4-1.1-1.9-1.9c-0.5-0.7-0.7-1.7-1-2.5c-0.3-0.9-0.5-1.7-0.5-2.6c0-0.9,0.1-1.8,0.3-2.6
					c0.3-0.8,0.8-1.6,1.3-2.3C351.2,539.5,351.7,538.8,352.5,538.2z"/>
				<path id="XMLID_55_" fill="#FBAE25" d="M351.3,549c0.6-0.1,5.1-3.1,5.1-3.7c0,0-5.5-1-6.1-0.9
					C349.7,544.5,350.7,549.1,351.3,549z"/>
				<path id="XMLID_54_" fill="#FBAE25" d="M356.8,544.9c-0.5-1-2.9-5.4-3.5-5.6c-0.6-0.2-3.4,3.7-3,4.1
					C350.8,543.8,357,545.4,356.8,544.9z"/>
				<path id="XMLID_53_" fill="#FBAE25" d="M361,551.1c0-1.1-2.9-5.1-3.6-5c-0.7,0.1-1,5.4-0.6,6.2
					C357.2,552.9,361.1,552.2,361,551.1z"/>
				<path id="XMLID_52_" fill="#FBAE25" d="M355.7,551.8c0.5-0.4,1.4-5.5,1.1-5.7c-0.3-0.2-4.7,3-5,3.7
					C351.6,550.4,354.8,552.5,355.7,551.8z"/>
				<path id="XMLID_51_" fill="#FBAE25" d="M363.8,542c-2.2,0.9-5.6,2.6-5.5,3c0.1,0.2,5.1,0.9,6,1.3
					C365.4,546.7,364.6,541.7,363.8,542z"/>
				<path id="XMLID_50_" fill="#FBAE25" d="M358.1,545.6c-0.3,0.5,2.8,3.6,3.9,4.9c0.4,0.5,3-2.3,2.4-3.1
					C363.8,546.4,358.4,545,358.1,545.6z"/>
				<path id="XMLID_49_" fill="#FBAE25" d="M354.1,538.8c0.7,1.6,2.5,5.8,3.2,6c0.7,0.1,1.5-5.8,0.9-6.6
					C357.6,537.3,353.7,537.8,354.1,538.8z"/>
				<path id="XMLID_48_" fill="#FBAE25" d="M358.2,544c-0.1,0.4-0.3,0.6,0.2,0.3c0.5-0.3,3.3-1.8,3.9-2.1c0.6-0.3,1.8-1,0.7-2.3
					c-1.1-1.3-2.4-1.7-3.2-1.8c-0.8-0.1-0.8,0.8-0.9,1.4C358.9,540.2,358.4,543.2,358.2,544z"/>
			</g>
			<g id="XMLID_36_">
				<path id="XMLID_46_" fill="#F79029" d="M379.8,526c0.3,0.7,0.5,1.4,0.6,2.1c0.1,0.7,0.1,1.5,0,2.2c-0.1,0.7-0.3,1.4-0.6,2.1
					c-0.3,0.7-0.6,1.3-1.1,1.9c-0.4,0.6-1,1-1.6,1.5c-0.6,0.4-1.2,0.8-1.9,1.1c-0.7,0.3-1.4,0.5-2.1,0.6c-0.7,0.1-1.5,0.1-2.2,0
					c-0.7-0.1-1.4-0.3-2.1-0.5c-0.7-0.3-1.3-0.7-1.9-1.1c-0.6-0.4-1.1-0.9-1.5-1.5c-0.4-0.6-0.8-1.2-1.1-1.9
					c-0.3-0.7-0.5-1.4-0.6-2.1c-0.1-0.7,0-1.5,0.1-2.2c0.1-0.7,0.3-1.4,0.5-2.1c0.3-0.7,0.7-1.3,1.1-1.9c0.4-0.6,0.9-1.1,1.5-1.6
					c0.6-0.4,1.2-0.8,1.9-1.1c0.7-0.3,1.4-0.5,2.1-0.6c0.7-0.1,1.5,0,2.2,0.1c0.7,0.1,1.4,0.3,2.1,0.6c0.7,0.3,1.3,0.6,1.9,1
					c0.6,0.4,1.1,1,1.5,1.6C379.1,524.7,379.5,525.3,379.8,526z"/>
				<path id="XMLID_45_" fill="#FFEFD5" d="M379.2,526.2c0.3,0.8,0.4,1.6,0.5,2.3c0.1,0.8,0,1.6-0.2,2.3c-0.2,0.8-0.4,1.6-0.8,2.2
					c-0.4,0.7-0.9,1.4-1.5,1.9c-0.6,0.5-1.4,0.8-2.1,1.1c-0.8,0.3-1.5,0.5-2.3,0.5c-0.8,0.1-1.6-0.1-2.3-0.3
					c-0.8-0.2-1.6-0.3-2.3-0.7c-0.7-0.4-1.3-0.9-1.8-1.6c-0.5-0.6-0.8-1.4-1.1-2.1c-0.3-0.8-0.4-1.5-0.5-2.3
					c-0.1-0.8-0.1-1.6,0.1-2.4c0.2-0.8,0.4-1.5,0.9-2.2c0.4-0.7,0.9-1.4,1.5-1.9c0.6-0.5,1.3-1,2.1-1.3c0.8-0.3,1.6-0.3,2.4-0.3
					c0.8-0.1,1.6-0.1,2.4,0.1c0.8,0.2,1.5,0.4,2.2,0.9c0.7,0.4,1.2,1,1.7,1.6C378.3,524.8,378.8,525.5,379.2,526.2z"/>
				<path id="XMLID_44_" fill="#FBAE25" d="M370,522.9c0,0.6,1.6,5.2,2.2,5.3c0,0,2-4.6,2-5.2C374.2,522.4,370,522.3,370,522.9z"/>
				<path id="XMLID_43_" fill="#FBAE25" d="M372.4,528.6c1-0.2,5.4-1.4,5.7-1.9c0.3-0.5-2.5-3.8-3-3.5
					C374.6,523.6,371.9,528.7,372.4,528.6z"/>
				<path id="XMLID_42_" fill="#FBAE25" d="M366.1,531c0.9,0.2,5.1-1.4,5.2-2.1c0.1-0.6-4.5-2-5.4-1.8
					C365.3,527.3,365.1,530.8,366.1,531z"/>
				<path id="XMLID_41_" fill="#FBAE25" d="M366.6,526.1c0.3,0.5,4.5,2.4,4.8,2.2c0.3-0.3-1.7-4.8-2.2-5.1
					C368.7,522.8,366.1,525.2,366.6,526.1z"/>
				<path id="XMLID_40_" fill="#FBAE25" d="M373.4,535.3c-0.4-2.1-1.1-5.5-1.5-5.5c-0.2,0-1.9,4.2-2.4,5
					C369,535.8,373.6,536.1,373.4,535.3z"/>
				<path id="XMLID_39_" fill="#FBAE25" d="M371.5,529.6c-0.4-0.4-3.7,1.7-5.2,2.4c-0.5,0.3,1.4,3.1,2.2,2.8
					C369.6,534.4,371.9,530,371.5,529.6z"/>
				<path id="XMLID_38_" fill="#FBAE25" d="M378.4,527.6c-1.6,0.3-5.7,0.9-5.9,1.5c-0.3,0.6,4.8,2.6,5.6,2.2
					C378.9,530.9,379.3,527.4,378.4,527.6z"/>
				<path id="XMLID_37_" fill="#FBAE25" d="M372.9,530c-0.3-0.2-0.5-0.4-0.3,0.1c0.2,0.5,0.9,3.2,1,3.9c0.1,0.6,0.5,1.8,1.9,1.1
					c1.4-0.7,2-1.7,2.2-2.4c0.3-0.7-0.5-0.9-1.1-1.1C376.1,531.4,373.6,530.4,372.9,530z"/>
			</g>
			<g id="XMLID_11_">
				<path id="XMLID_35_" fill="#EEBC7F" d="M354.3,522.5c-1,0.8-1.6,2.1-1.8,3.3c-0.3,1.8,0.4,4.1,1.5,5.6c0.4,0.6,0.6,0.8,1.3,0.8
					c0.9,0,1.8-0.3,2.7-0.4c0.4-0.1,1.5-0.1,1.8-0.4c0.3-0.3,0.3-1.5,0.4-2c0.3-1,0.5-1.7,1.2-2.5c0.7-0.8,1.4-1.2,0.8-2.3
					c-0.7-1.2-1.8-2.6-3-3.4c-0.9-0.6-1.8-0.5-2.6-0.1C355.6,521.5,355.1,521.9,354.3,522.5z"/>
				<path id="XMLID_34_" fill="#E0845F" d="M355.5,530.6c0.1-1.8,0.3-3.9,1.1-5.6c0.5-0.9,1.1-1.8,1.7-2.7c0.2-0.3,0.6-0.8,0.7-1.2
					c-0.8-0.5-1.7-0.4-2.5,0c-0.9,0.4-1.4,0.7-2.3,1.4c-1,0.8-1.6,2.1-1.8,3.3c-0.3,1.8,0.4,4.1,1.5,5.6c0.4,0.6,0.6,0.8,1.3,0.8
					c0.1,0,0.1,0,0.2,0C355.5,531.7,355.5,531.1,355.5,530.6z"/>
			</g>
			<g id="XMLID_4_">
				<path id="XMLID_9_" fill="#EEBC7F" d="M373.4,548.6c1.1,0.3,2.2,0,3-0.6c1.2-0.8,2.1-2.6,2.3-4.2c0.1-0.7,0.1-0.9-0.3-1.4
					c-0.6-0.7-1.2-1.1-1.9-1.7c-0.3-0.3-1-1-1.3-1.1c-0.4,0-1.1,0.7-1.4,0.8c-0.7,0.4-1.3,0.6-2.2,0.6c-0.9,0-1.5-0.3-1.8,0.7
					c-0.3,1.2-0.4,2.8-0.1,4.1c0.2,0.9,0.8,1.5,1.5,1.9C372.1,548.2,372.6,548.4,373.4,548.6z"/>
				<path id="XMLID_8_" fill="#E0845F" d="M377.3,543.1c-1.1,1-2.4,2-3.9,2.4c-0.8,0.2-1.7,0.3-2.5,0.3c-0.3,0-0.8,0-1.1,0.2
					c0.2,0.8,0.8,1.4,1.5,1.8c0.8,0.4,1.3,0.6,2.1,0.8c1.1,0.3,2.2,0,3-0.6c1.2-0.8,2.1-2.6,2.3-4.2c0.1-0.7,0.1-0.9-0.3-1.4
					c0,0-0.1-0.1-0.1-0.1C378,542.5,377.6,542.9,377.3,543.1z"/>
			</g>
		</g>
		<g id="XMLID_2_">
			<path id="XMLID_7635_" fill="#F8E2D2" d="M491.6,511.9c-1-0.8-1-1.6-0.4-2.6c0.6-1,1.6-1.8,2.3-2.7c0.6-0.9,1.7-1.8,0.7-2.9
				c-0.9-1-2.2-0.5-3.3,0.1c-0.7,0.4-1.2,0.9-1.6,1.6c-0.4,0.6-0.8,1.3-1.1,2c-0.8,1.8-2.3,2.4-4.2,2.3c-2-0.1-3.7,0.3-5.3,1.6
				c-1.4,1.3-2.8,2.6-3.8,4.2c-1.1,1.7-2.2,3.5-2.4,5.6c-0.2,3.4,2.2,7.4,5.4,8.8c0.6,0.3,1.2,0.4,0.8,1.3c-0.9,2.2-0.9,4.3-0.2,6.6
				c0.2,0.7,0,1.1-0.8,1.4c-1,0.3-1.9,0.8-2.4,1.6c-1.5,2.2-2.5,4.6-2.5,7.3c-0.1,4,2.1,6.8,4.6,9.5c1.6,1.8,3.7,2.7,6.1,2.6
				c0.6-0.1,1.2,0,1.8-0.2c4.8-1.1,9.7-5.5,8.3-12.9c-0.5-2.7-1.5-5-4-6.3c-2.2-1.2-4.5-2.4-7.1-2.5c-0.6,0-0.9-0.4-1.1-0.9
				c-1-2.2-0.3-4.3,0.4-6.4c0.2-0.5,0.6-0.5,1.1-0.5c1,0,2,0.1,3,0c2-0.2,4.2-0.5,5.3-2.5c1.1-1.8,2-3.7,2.9-5.5
				C495.8,519.1,494.3,514.1,491.6,511.9z M482.7,541.4c2.2,0.5,4.1,1.5,5.8,2.9c1.6,1.4,1.4,3.4,1.6,5.6c0.1,1.5-0.5,2.9-1.6,4.3
				c-2.6,3.3-6.6,2.8-9.2,0.3c-2.9-2.8-3.3-6.3-2.4-10C477.3,542.9,480.7,541,482.7,541.4z M487.9,526.5c-0.1,0.1-0.3,0.2-0.5,0.3
				c-3.3,1.8-9,0.3-10.7-3c-0.9-1.7-1-3.7,0.1-5.3c1.7-2.6,3.6-5.1,7-5.5c2.2-0.3,4.1,0.3,5.8,1.5c1.6,1.2,1.4,3.2,1.6,4.8
				C491.2,522.3,489.9,524.6,487.9,526.5z"/>
			<path id="XMLID_7632_" fill="#F8E2D2" d="M444.2,537.2c0.2-4,0-8-0.1-11.9c-0.1-3.6-0.4-7.2-1-10.7c-0.6-3.6-2.5-5.5-5.9-6
				c-4.1-0.6-7.6,0.8-10.4,3.8c-0.8,0.9-0.7,2.3,0.2,2.9c1,0.7,1.9,0.5,2.7-0.7c1.6-2.3,3.9-3,6.4-2.8c1.9,0.1,3,1.4,3.5,3.1
				c0.5,2.1,0.9,4.3,0.9,6.5c0,0.5,0,1,0,1.6c-0.1,1.4-0.3,1.5-1.6,0.9c-0.9-0.4-1.7-0.9-2.7-1c-4.1-0.7-6.5-0.2-8.9,3.8
				c-1,1.8-1.5,3.8-1.9,5.8c-0.2,1-0.1,1.9,0.3,2.8c1.1,2.9,5.5,5.6,8.6,5.2c1.5-0.2,2.8-0.8,4.1-1.5c2.5-1.4,2.5-1.4,2.5,1.5
				c0,1,0.2,2.1,1.3,2.2c1.2,0.2,1.6-0.9,1.9-1.9C444.5,539.5,444.1,538.4,444.2,537.2z M439.4,534.1c-2,1.8-3.9,3.7-6.8,2.6
				c-3.9-1.5-4.2-2.2-3.1-6.5c0.6-2.3,2.4-3.5,4.8-3.9c2.5-0.4,4.2,0.7,5.6,2.6c0.5,0.7,0.3,1.6,0.3,2.4
				C440.1,532.2,440.4,533.2,439.4,534.1z"/>
			<path id="XMLID_7628_" fill="#F8E2D2" d="M411.6,507.9c2.3-0.6,4.2-0.2,5.8,1.6c0.8,1,0.9,2.2,1.3,3.4c0.2,0.6,0.6,1.2,1,1.3
				c0.7,0.3,1.3,0.1,2-0.3c0.8-0.5,1.2-2.3,0.4-3.7c-2.1-3.5-5.1-5.5-8.7-5.7c-3.5,0.1-6.1,1.1-8.2,3.2c-1.9,2-3.3,4.3-4.2,6.9
				c-0.6,1.7-0.6,3.5,0.2,5c1.3,2.5,2.6,4.9,6.2,4.8c1.4,0,2.9,0.1,4.4,0c1.9-0.2,3.4,0.4,4.3,2.1c0.4,0.7,0.9,1.3,1.3,2
				c1.3,2.4,0.5,4.6-0.8,6.7c-1.2,2-2.9,3-5.3,2.6c-1.6-0.2-3.1-0.5-4.3-1.7c-1-1-0.6-2.2-0.5-3.4c0.1-1.1-0.8-1.8-1.8-1.7
				c-1.3,0.1-2.5,1.7-2.3,3.1c0.6,3.4,2.9,5.4,6,6.4c2.3,0.8,4.7,1.6,7,0.3c3-1.7,5.2-4.2,5.8-7.6c0.5-3,0.1-3.3-0.8-6
				c-0.6-1.7-1.1-2.5-2-3.6c-1-1.2-1.9-1.4-3.4-1.8c-2-0.4-4.1-0.2-6.1-0.3c-3.2-0.1-4.7-1.7-4.7-4.9
				C404.4,513.1,407.7,509,411.6,507.9z"/>
			<path id="XMLID_7624_" fill="#F8E2D2" d="M467.2,524.6c-0.1-2.2-0.4-4.3-0.2-6.5c0.2-1.8-1.4-2.5-2.9-1.6
				c-0.9,0.5-0.8,1.3-0.9,2.1c-0.1,3.9,1.4,7.8,0.6,11.7c-0.1,0.7,0.2,1.7-0.6,1.9c-0.7,0.2-1.2-0.7-1.6-1.2c-1.7-2.6-3.8-5-5.8-7.4
				c-0.9-1.1-1.8-2.2-2.8-3.2c-1.3-1.4-3-1.8-3.9-0.7c-0.8,1-1.5,2.4-1.3,3.6c0.3,1.6,0.4,3.2,0.6,4.8c0.6,3.9,1.5,7.7,1.5,12.1
				c0,0.3-0.1,1-0.1,1.6c-0.1,0.9,0.5,1.4,1.2,1.7c0.8,0.4,1.4-0.1,1.8-0.7c0.7-1,0.7-2,0.5-3.2c-0.7-4.8-0.8-9.7-2.1-14.4
				c-0.1-0.3-0.2-0.8,0.3-1c0.3-0.2,0.6,0.1,0.9,0.3c1,0.8,1.7,1.8,2.5,2.7c2.6,3.2,5.7,6.1,7,10.3c0.5,1.6,1.2,1.8,2.7,1.5
				c2-0.5,2.9-1.3,2.8-2.8C467,532.5,467.4,528.5,467.2,524.6z"/>
			<path id="XMLID_7623_" fill="#F8E2D2" d="M506.5,525.4c0.6-0.9,1.2-1.7,2.2-2.1c1-0.5,2.1-0.6,3.2-0.8c4.4-0.9,4.4-0.9,6.2,3.2
				c0.2,0.4,0.3,0.8,0.9,0.8c0.7,0,2.2-1.3,2.2-2c0-2.9-2.6-6.2-5.5-5.8c-1.6,0.2-3.1,0.6-4.6,1c-0.3,0.1-0.7,0.3-0.9,0
				c-0.3-0.3-0.2-0.7-0.1-1.1c0.3-0.8,1-1.2,1.4-1.8c0.6-0.8,1.1-1.8,0.5-2.8c-0.6-0.9-1.7-1-2.7-0.7c-0.6,0.2-0.9,0.6-1.3,1.2
				c-0.2,0.4-1.1,2.1-1.3,2.5c-0.5,0.7-1.5,3-2.7,5.1c-2.4,4.5-4.2,9.3-6.7,13.8c-0.4,0.8-1,1.7,0,2.5c0.9,0.8,2.3,0.6,3.2-0.5
				c0.7-0.8,1.3-1.6,1.7-2.6C503.4,532,504.6,528.6,506.5,525.4z"/>
			<path id="XMLID_6803_" fill="#F8E2D2" d="M518.4,507.1c2.6-0.1,4.7-1.4,5.6-2.2c1.1-1,1.9-2.3,2-2.5c1.1-2.1,1.3-3.7,0.4-6.2
				c-0.6-1.6-1.9-2.7-3.2-3.6c-2.4-1.7-5.3-2.3-8.1-1.3c-3.2,1.1-5.7,7.4-4.5,10.5C511.8,505.1,514.8,507.3,518.4,507.1z
				 M517.7,494.1c3.5,0,6.1,2.3,6,5.4c0,2.2-2.5,4.5-4.8,4.5c-2.8-0.1-5.4-2.6-5.4-5.2C513.7,496.5,515.7,494.1,517.7,494.1z"/>
			<path id="XMLID_6802_" fill="#F8E2D2" d="M538.2,527.5c-1.4-2.4-2.9-5-4.4-7.6c-1.3-2.1-2.5-4.2-3.5-6.4c-0.5-1-1.5-1.4-2.5-1.1
				c-1.1,0.3-1.8,1.4-1.5,2.3c0.2,0.5,0.5,1,0.8,1.4c1.8,3.1,4.4,6,5.6,9.3c1.1,3,3.6,5.6,4.6,8.7c0.2,0.6,0.7,1.2,1.7,1.2
				c0.9-0.1,1.6-0.6,2.1-1.3c0.4-0.6,0.1-1.2-0.3-1.7C539.4,530.9,538.8,529.3,538.2,527.5z"/>
			<path id="XMLID_7641_" fill="#F8E2D2" d="M559.9,534.5c0.3-7.8,0.5-16.3-2.2-25.8c-0.7-2.6-2.7-4.4-4.3-5
				c-2.1-0.8-4.3-0.5-6.5,0.1c-0.1,0-0.2,0.1-0.2,0.1c-1.4,0.5-2.5,1-3.7,1.9c-0.3,0.2-0.6,0.5-0.9,0.8c0,0-0.1,0.1-0.1,0.1
				c-2.3,2.2-3,5.5-2.1,8.6c1,3.6,4.8,7.1,10.2,5.2c1.1-0.4,1.7-0.6,2.8-1.2c1.1-0.6,1.1-1.6,0.9-2.4c-0.1-0.6-0.8-1.2-1.5-1.2
				c-1.5-0.1-1.2,0.6-2.8,1.6c-0.9,0.5-2.7,0.6-3.3,0.4c-3.4-1.1-3.4-2.8-3.2-5.2c0.2-3.4,2.9-5,5.7-5.7c1-0.2,1.9-0.3,2.8-0.1
				c1.6,0.4,2.1,1.4,2.9,2.8c1.8,3.1,4.3,19.8,2.4,26.8c-0.3,1-0.5,1.4-1.5,0.8c-1.6-0.8-3.2-1.5-5-1.3c-2.8-0.2-4.8,1.1-6.2,3.3
				c-1.7,2.7-3,5.7-2.1,8.7c1,3.6,5.9,7.5,11,5.1c1.1-0.5,2.1-1.1,3.2-1.6c0.8-0.4,1.2-0.1,1.2,0.7c0,0.7,0,1.3,0,2
				c0,0.9,0.4,1.6,1.4,1.7c0.9,0.1,1.4-0.6,1.6-1.4c0.2-0.5,0.2-1.1,0.2-1.7C560.4,546.7,559.6,543,559.9,534.5z M556.8,545.2
				c-0.3,1.9-5.1,5.9-7.9,4.8c-2.8-1.1-3.8-2.1-3.5-4.8c0.3-3.3,2.4-5.4,5.3-5.8c2.4-0.3,4.1,0.8,5.4,2.6
				C556.7,542.7,557,544.1,556.8,545.2z"/>
		</g>
	</g>
	<g>
		<g>
			<path fill="#F8E2D2" d="M473,408.7c-3.5,5.8-9.6,8-15.3,12.3c1.4,5.4,6.2,9,9.3,13.6c3.2,4.7,10.7,10.8,9.4,15.2
				c-0.6,2.1-0.6,2.5-2.2,4.3c-2.5,2.8-4.6,2.8-6.8-0.3c-2.7-3.8-5.2-7.8-7.7-11.7c-2.9-4.6-5.8-9.1-8.5-13.8
				c-1.7-2.8-3.8-4-7.2-3.8c-7.2,0.4-14.2-0.7-21.2-2.3c-9.7-2.2-17.1-7.6-22.6-15.5c-3.3-4.7-7.6-8.9-9.2-14.8
				c-0.7-2.6-2-5.3-2.1-7.9c-0.8-14,1.7-27.4,7.6-40.1c0.6-1.2,1.1-2.5,2-3.4c7-7.1,14.3-13.9,23.8-17.5c3-1.1,2.6-0.6,5.7-1.4
				c1-0.2,7-0.3,8-0.1c3.8,0.9,6.1,0.8,9.9,1.7c10.6,2.5,18.6,9,25.4,17c1.8,2.2,2.9,5.1,3.9,7.8c2.3,6.4,5.9,12.7,6.4,19.5
				c0.2,2.6,0,17.3-0.4,19c-0.6,2.6-1.1,5.1-1.9,7.6c-0.5,1.6-1.5,3.1-2.5,4.5C475,401.6,475.3,405,473,408.7z M453.7,409.7
				c6.2-2.4,10.8-6,13.7-11.5c4.3-8.1,4.5-16.8,3.9-25.7c-0.7-12.7-5.9-23.4-15-32.2c-3.9-3.8-8.6-3.8-14-6
				c-5.8-2.4-8.1-0.2-13.1,0.7c-4.6,0.8-3.8,0.2-8.3,0.4c-5.8,0.3-16.7,11.9-17.7,17.6c-0.8,4.3-1.6,8.6-2.3,13
				c-0.3,1.8,0,3.8-0.1,5.6c-0.1,2,0.2,4.1-0.4,6c-0.9,3.1-0.8,6,0.1,9c2.3,7.3,6.6,13.3,11.7,18.9c7.4,8.1,20.7,11.6,31.3,7.6
				c-0.8-2.9-1.4-5.9-2.4-8.8c-2.7-7.9-5.3-15.9-13.6-20c-0.3-0.1-0.5-0.3-0.7-0.5c-2.2-2.1-2.4-3.7-0.8-6.2c1.5-2.4,3.3-3,6-1.9
				c1.3,0.6,2.5,1.4,3.8,2.2c8.2,5.3,13.3,12.5,14.2,22.5c0.1,1.4,0.5,2.9,1.1,4.2C451.8,406.1,452.7,407.7,453.7,409.7z"/>
			<path fill="#F8E2D2" d="M253.9,355.5c0.8-0.2,1.5-0.3,2.1-0.5c3.5-1.7,6.9-3.6,10.5-5.2c8.2-3.7,19.7-3.1,25.8,6.2
				c2.4,3.7,5.5,6.8,8.1,10.3c1,1.4,1.7,3,2.2,4.7c2.8,10.8,1.2,21.2-3,30.9c-0.1,0.3-4.4,6.1-4.6,6.3c-5.8,5.8-6.8,7.3-14.3,11.3
				c-6.5,3.5-12.6,1.8-18.8-0.9c-1.9-0.8-3.8-1.6-5.8-1.8c-3.4-0.4-4.5,0.9-4.2,4.3c0.6,9.6,1.4,19.3,1.9,28.9
				c0.3,6.1,0.4,12.3,0.6,18.4c0.1,3.8-3.3,10-6.3,11c-3.7,1.2-6.8-1-6.6-4.9c0.1-1.3,0.4-2.6,0.8-3.9c1.1-3.5,2-6.9,0.9-10.7
				c-0.6-1.9,0.6-4.3,0.7-6.5c0.3-7,0.6-14,0.7-21c0-1.1-0.4-2.3-0.8-3.4c-1.7-5.9-1.9-11.8-1.2-17.8c0.6-4.8,1.2-9.6,1.1-14.4
				c-0.1-5.6-1.3-11.2-1.6-16.9c-0.4-5.8-0.5-11.7-0.4-17.5c0.1-4.5,0.9-9,1.3-13.5c0.4-3.8,1.6-7.2,5.2-9.1
				c3.5-1.9,6.5-0.1,6.4,3.8C254.6,347.5,254.2,351.4,253.9,355.5z M293.2,383.4c-0.8-3.2-1.9-8.8-3.7-14.2
				c-1.7-4.9-6.3-7.1-10.4-9.6c-3-1.9-6-0.4-8.9,0.4c-6.5,1.7-11.3,6.1-15.1,11.4c-2.9,4-1.9,8.6-1.3,13.1c0.5,4.2,0.9,8.4,0.5,12.6
				c-0.5,4.8,0.2,6.7,4.7,8.5c2.6,1,5.3,1.8,7.7,3.1c4.4,2.3,8.5,2,12.4-0.7c2.3-1.6,4.1-3.7,6.4-5.3
				C291.3,398.6,292.8,392.5,293.2,383.4z"/>
			<path fill="#F8E2D2" d="M330,380.3c2.4-4.4,4.8-5.4,7.7-7.2c2.3-1.4,3.9-2.9,6.6-2.6c3.3,0.4,6.7,0.3,9.9,1.1
				c4.5,1.1,7.9,3.9,10.8,7.8c3.9,5.4,7.4,10.9,8,17.7c0,0.3,0.1,0.6,0.2,0.9c0.3,9.3,0.6,18.6,1,28c0,1.3,0,2.7,0.6,3.7
				c2.5,4.4,2.7,9.2,3,14c0.1,1.1-0.4,2.3-0.7,3.4c-0.5,1.9-2,3.3-3.8,2.9c-1.5-0.3-3.2-1.3-4.1-2.5c-0.9-1.2-1.1-3-1.3-4.6
				c-0.8-7-0.8-14.1-2.2-20.9c-1.7-8.3-2-16.8-3.2-25.1c-0.4-2.7-1.6-5.3-2.7-7.8c-2.2-5.3-7.3-6.4-12-7.7c-1.3-0.4-3.3,0.9-4.6,1.9
				c-6.3,4.7-8.3,11.6-9.4,19.1c-1.4,9.3,1,18.3,1.5,27.5c0.2,3.2,0.9,6.4,1.4,9.5c0.5,3.1-2,6.2-5.6,7.1c-2.5,0.6-5.3-1.4-5.7-4.7
				c-0.6-4.8-0.8-9.6-1.1-14.4c-0.1-1.6-0.3-3.2-0.5-4.8c-0.7-5.6-1.6-11.3-2.2-16.9c-1.4-13.4-2.7-26.8-3.9-40.1
				c-1.1-12.1-2.3-24.2-3.1-36.3c-0.8-11.3-1.2-22.7-1.8-34c-0.1-2.7,3.5-6.7,6.3-7c2.7-0.3,5.9,2.4,6.1,5.7
				c0.1,2.9-0.2,5.8-0.4,8.7c0,0.7-0.2,1.4-0.1,2.2c0.3,10.4,0.5,20.7,0.8,31.1c0.3,8.8,0.2,17.6,1,26.3
				C326.8,367.9,328.6,373.6,330,380.3z"/>
			<path fill="#F8E2D2" d="M214.4,378.7c2-6.3,0.7-12.5,0.1-18.7c-0.3-2.8-0.9-5.5-1.3-8.2c-1.8-10.3-9.9-14.1-18.7-11.7
				c-3.2,0.8-6.3,2.3-9.2,3.9c-1.4,0.8-2.4,2.5-3.3,3.9c-2.6,4-5,4.9-8.1,2.6c-2.6-1.9-3-6.7-0.6-9.4c5-5.6,11.4-9,18.7-10.8
				c5.5-1.4,10.9-1.3,16.4,0c6.7,1.6,10.7,6.3,12.7,12.3c1.7,5,2.3,10.5,3,15.8c0.8,6.1,1.3,12.2,1.9,18.3c0.1,0.7,0.3,1.4,0.3,2.2
				c0.2,15.5,0.5,31,0.5,46.5c0,2.4-0.7,4.9-1.7,7.1c-0.5,1.2-2.7,2.7-3.7,2.4c-1.6-0.4-3.1-2-3.9-3.5c-0.6-1.3-0.1-3.1-0.2-4.7
				c-0.1-2.2-0.2-4.5-0.3-7.4c-4.5,2.3-8,4.3-11.7,6c-5.8,2.7-12,4.6-18.2,2.1c-7.3-3-13.3-7.9-16.9-15.2c-0.6-1.3-1-2.8-1-4.2
				c0.1-9.7,2.6-18.8,8.5-26.7c6.2-8.2,14.7-9.5,24-7.4C205.9,374.8,209.9,376.9,214.4,378.7z M196.1,417.3c5.2,0.4,9-2.1,12.4-5.5
				c1-1,1.8-2.6,3-3.1c3-1.2,3.2-3.5,3.2-6.1c0-1.9-0.7-3.8-0.5-5.6c0.5-3.5-1.7-5.5-3.6-7.9c-2.1-2.6-4.6-4.2-7.7-4.7
				c-5.8-0.9-11.4,0-16.2,3.6c-6.8,5.1-7.7,13-6.9,20.2c0.5,4.9,6.6,6.5,11.1,8.2C192.5,417.1,194.4,417.1,196.1,417.3z"/>
			<path fill="#F8E2D2" d="M59.1,435.2c2.1-13.9,1.4-27.6,1-41.6c-3.2-0.6-5.9-1-8.6-1.5c-4.7-1-6.5-4.8-4.4-8.9
				c1.3-2.4,3.1-3.4,5.8-2.7c2.2,0.6,4.4,1.5,7.1,2.5c0.8-1,1.5-2.1,2.4-2.9c2.4-2,5.3-2.3,7.6-0.4c2.2,1.8,4.1,1.7,6.5,0.8
				c2.3-0.9,4.6-1.9,7-2.5c3.4-0.8,10.2-1.6,9.2,3.3c-0.6,3.1-4.7,4.3-7.4,5.7c-3.5,1.8-7.2,3.1-11,4.2c-3.5,1-4.6,2-5,5.5
				c-0.1,0.9-0.1,1.8-0.1,2.6c0.4,5.8,1.3,11.5,0.2,17.4c-0.5,2.6,0.9,5.4,1.3,8.2c0.5,4.2,1.2,8.4,1.1,12.6
				c-0.1,5.4-2.3,6.7-7.6,5.9c-1.6-0.2-3.5,0.1-5.1,0.7c-7.1,2.8-13.8,2.3-20.4-1.7c-2.1-1.3-4.4-2.2-6.5-3.6
				c-6.8-4.3-11.8-9.9-13.8-18c-2-8.1-4-16.4-2.9-24.7c1.1-7.7,3.8-15.2,5.9-22.8c0.4-1.4,1.2-2.7,1.5-4.1
				c2.6-12.6,9.1-23,17.7-32.3c4.1-4.5,8.9-6.9,15.2-6c4.1,0.6,8.4,0,11.9,3c3.2,2.7,3.4,5.7,0.3,8.5c-1.6,1.5-3.2,1.6-5.2,0.5
				c-6-3.3-14.2-1.4-18.3,4c-8.5,11.3-14,23.9-16.8,37.7c-0.9,4.4-3.2,8.4-2.6,13.2c0.9,6.7,1.2,13.4,2,20.1
				c0.5,4.3,3.1,9.7,7.3,12.8c6.8,5,14.1,6.5,22.1,5.5C57.5,436.2,58.2,435.6,59.1,435.2z"/>
			<path fill="#F8E2D2" d="M502.3,379.9c-0.6-13.9-1.3-29.6-1.9-45.4c-0.2-4.1,0.9-5.7,4.3-7.2c2.5-1.1,4.3-0.5,5.3,2
				c0.4,1.1,0.8,2.3,0.8,3.4c0,5.9,1.2,11.6,0,17.7c-1,5,0,10.5,0.1,15.7c0,3.5-0.1,7-0.2,10.5c0,1.6-0.4,3.2-0.2,4.8
				c1.6,10.5,1.1,21,0.1,31.5c-0.4,4.1-0.3,8.2-0.3,12.3c0,3.7,1.8,5.3,5.4,5.2c7-0.3,14-0.6,21-0.8c5.4-0.1,10.8,0,16.2,0
				c1,0,2.1-0.1,3.1,0.1c3.1,0.4,4.8,2.2,4.6,4.8c-0.2,2.7-2.6,4.6-5.6,4.4c-13.2-0.8-26.5,0.3-39.7,0.3c-4.2,0-8.3,1.1-12.5-0.2
				c-1-0.3-3.8-3.7-3.1-7c1.3-6.4,1-11.2,1.4-17C501.8,403.7,501.8,392.8,502.3,379.9z"/>
			<path fill="#F8E2D2" d="M119.6,367.1c2.6-2.3,5-4.4,7.5-6.5c1.1-1,2.2-2,3.4-2.8c8.1-6,16.2-4.9,22.7,2.8
				c4.4,5.3,6.2,13.2-1.2,13.2c-1.5,0-2.3-2-3.4-3.1c-1.4-1.3-2.6-2.8-4.1-4c-3.8-2.9-6-3-9.8-0.1c-4.2,3.2-8.3,6.4-12.3,9.9
				c-3.3,2.8-4.6,6.3-4.8,10.8c-0.5,9.8,0,19.4,0.9,29.2c0.4,4.6-0.2,9.3-0.9,13.9c-0.2,1.6-1.6,3.6-3,4.5c-4.8,2.9-8.1,0.9-8.4-4.8
				c-0.1-1-0.1-2.1,0.1-3c1.2-4.9,0.7-8.6,0.6-12.9c-0.2-12.7-0.4-25.4-0.6-38.1c0-2.8-0.3-5.6-0.3-8.3c0-2.5,0.5-4.9,0.6-7.3
				c0.1-1.6,0.3-3.2,0.1-4.8c-0.5-5,4.8-9.3,9.4-7.6c2.2,0.8,3.6,4.7,2.9,8.1c-0.4,1.7-1.1,3.3-1.6,5
				C116.6,363.7,116.8,364.3,119.6,367.1z"/>
		</g>
	</g>
	<g>
		<path fill="#F8E2D2" d="M298.2,533.7c0.7-1.1,1.2-1.3,2.1-1.9c0.2-0.1,1.1-0.4,1.3-0.4c2.3-0.2,3.7,0.2,5.2,2.3
			c1.5,2,2.1,4.2,1.8,6.6c0,0.2,0,0.5,0.1,0.7c0.4,1.2,0.3,2.4,0.2,3.6c0,0.4,0,0.9,0.2,1.2c0.6,1.1,0.6,2.3,0.7,3.5
			c0.1,0.8-0.5,1.3-1.1,1.4c-0.6,0-1.1-0.4-1.3-1.2c-0.3-1.8-0.4-3.6-0.6-5.4c-0.1-0.5,0-1-0.1-1.4c-0.5-1.2-0.4-2.4-0.5-3.7
			c0-0.8-0.2-1.6-0.4-2.4c-0.4-1.7-1.7-2.7-3.3-2.7c-0.8,0-1.3,0.5-1.6,0.7c-0.8,0.8-1,1.2-1.4,2.2c-0.6,1.8-0.7,3.6-0.5,5.4
			c0.2,2,0.5,4,0.8,5.9c0.1,0.6-0.7,1.5-1.5,1.6c-0.6,0.1-1.2-0.4-1.3-1.1c-0.1-1.1-0.2-2.2-0.2-3.3c0-0.2,0-0.5,0-0.7
			c-1.1-6.1-1.3-12.2-2-18.3c-0.4-3.5-0.4-7.1-0.6-10.7c0-0.9-0.1-1.7-0.2-2.5c-0.1-0.8,0.6-1.8,1.4-2c0.8-0.1,1.5,0.6,1.5,1.5
			c0,1-0.1,1.9,0,2.9c0.1,3,0.1,6.1,0.2,9.1c0,1.6,0,3.3,0.2,4.9C297.5,531,297.9,532.3,298.2,533.7z"/>
		<path fill="#F8E2D2" d="M250.1,536.4c-0.3,0.6-0.6,1.1-0.8,1.5c-1,2.2-1.9,4.4-2.9,6.6c-0.6,1.3-1.4,2.5-2.9,3
			c-0.8,0.3-1.4,0-1.3-0.8c0.1-1.7-0.5-3.2-0.8-4.8c-0.4-2.4-0.9-4.7-1.5-7c-0.3-1.3-0.9-2.5-1.6-3.7c-1-1.7-1.2-2.2,1.1-3.3
			c0,0,0.1,0,0.3,0c0.2,0.2,0.5,0.5,0.6,0.8c0.4,1,0.9,2.1,1.2,3.2c0.7,2.7,1.3,5.4,1.9,8c0.2,0.8,0.5,1.6,0.8,2.4
			c0.7-0.1,0.9-0.5,1.1-1c0.5-1.4,1.1-2.9,1.6-4.3c0.4-1,0.7-1.9,1.2-2.9c0.6-1.2,2-1.5,3.1-0.6c0.5,0.5,1,1.1,1.3,1.8
			c0.5,1,0.9,2,1.2,3c0.4,1.3,1.3,2.3,2.1,3.3c0.1,0.2,0.3,0.2,0.6,0.4c0.3-0.4,0.6-0.8,0.8-1.2c1.3-2.3,2-4.9,2.5-7.5
			c0.3-1.3,0.5-2.5,0.7-3.8c0.1-0.6,0.9-1.5,1.5-1.5c0.8-0.1,1.8,1.1,1.6,2.1c0,0.1-0.1,0.2-0.1,0.3c-1.4,2.2-1.8,4.6-2.3,7.1
			c-0.4,1.7-0.9,3.4-1.4,5.1c-0.3,1.1-0.9,2-1.8,2.7c-0.6,0.5-1.1,0.5-1.6,0.1c-0.6-0.4-1.2-0.9-1.6-1.4c-0.8-1.2-1.5-2.5-2.3-3.8
			c-0.5-0.9-1-1.9-1.5-2.8C250.8,537,250.5,536.8,250.1,536.4z"/>
		<path fill="#F8E2D2" d="M285.2,530.9c1.1-0.1,2.1-0.3,3-0.4c1-0.1,1.9-0.3,2.9-0.3c0.9,0,1.1,0.2,1.2,1.1c0,0.1,0,0.3,0,0.4
			c0,1-0.1,1.1-1.1,1.1c-1.9,0.1-3.8,0.3-5.8,0.4c-0.1,0.3-0.2,0.5-0.2,0.7c0,2.5,0,5.1-0.1,7.6c0,1.6-0.1,3.3-0.1,4.9
			c0,1.2,0.2,2.5,0.3,3.7c0.1,0.8,0.8,1,1.4,0.4c0.3-0.2,0.4-0.6,0.6-0.9c0.3-0.4,0.8-0.7,1.3-0.5c0.4,0.2,0.8,0.7,0.9,1.1
			c0.3,1.1-0.2,2-1.3,2.3c-0.7,0.3-1.5,0.5-2.3,0.6c-1,0.2-2.5-1-2.8-2c-0.6-2.4-0.3-4.8-0.4-7.3c-0.1-1.7,0-3.5,0-5.3
			c0-1.3-0.2-2.7,0.1-4c0.2-0.8-0.4-1.3-1.3-1.1c-1.3,0.2-2.5,0.3-3.8,0.5c-0.5,0.1-1,0-1.3-0.5c-0.3-0.5-0.1-1,0.2-1.5
			c0.5-0.6,1.1-0.9,1.8-0.9c1,0,2-0.1,3-0.2c1.1-0.1,1.4-0.5,1.4-1.6c-0.1-1.8-0.2-3.6-0.2-5.4c0-1.4,0-2.8,0.1-4.2
			c0-0.3,0.2-0.6,0.3-0.9c0.5-0.7,1.3-1,1.8-0.8c0.5,0.2,0.7,1,0.6,1.8c-0.2,1.1-0.4,2.2-0.5,3.4c-0.1,0.7,0.2,1.5,0.1,2.2
			c0,1.2-0.1,2.4-0.2,3.6C285.1,529.7,285.1,530.2,285.2,530.9z"/>
		<path fill="#F8E2D2" d="M264.8,516.5c0-1.6,0.5-3.1,1.4-4.5c1.1-1.7,2.8-2.3,4.7-1.9c0.4,0.1,0.8,0.2,1.2,0.3
			c2.5,0.7,4,2.4,4.9,4.8c0.2,0.5,0,1,0,1.6c0,1.7-1.5,2.8-2.1,4.2c-0.1,0.3-0.5,0.7-0.9,0.7c-1.8,0.3-3.6,0.8-5.6,0.1
			C266.2,520.9,264.7,519.1,264.8,516.5z M267.1,515.6c0,2.4,2.4,4.5,4.5,4.2c0.3,0,0.6-0.1,0.8-0.3c0.4-0.2,0.7-0.4,1.1-0.7
			c1.2-0.8,1.6-2,1.2-3.4c-0.5-1.9-1.9-2.7-3.6-3c-0.7-0.1-1.5-0.3-2.2,0.2C267.8,513.5,267.1,514.6,267.1,515.6z"/>
		<path fill="#F8E2D2" d="M272.9,529.7c0.1,1,0.1,1.9,0.2,2.9c0.1,1.5,0.4,2.9,0.5,4.4c0.1,1.5,0.3,3.1,0.3,4.6c0.1,1.6,0,3.3,0,4.9
			c0,0.8,0.2,1.7,0.3,2.5c0.2,1.3-0.2,1.9-1.5,2.3c-0.7,0.2-1.1,0-1.2-0.6c-0.2-0.7-0.2-1.4-0.2-2.1c0.1-0.9,0.1-1.8-0.2-2.7
			c-0.3-1-0.4-2.1-0.3-3.1c0.3-2.4-0.1-4.8-0.4-7.2c-0.2-1.8-0.5-3.7-0.7-5.5c-0.1-0.8,0.1-1.4,0.8-1.9c0.5-0.3,1-0.6,1.6-0.3
			c0.6,0.3,0.9,0.8,0.8,1.5C273,529.4,272.9,529.5,272.9,529.7z"/>
	</g>
	<g>
		<g>
			<g>
				
					<rect x="159.7" y="115.1" transform="matrix(0.5 -0.866 0.866 0.5 20.8239 275.6125)" fill="#F8E2D2" width="178.8" height="9.3"/>
			</g>
		</g>
		<g>
			<g>
				<rect x="198.5" y="182.5" fill="#F8E2D2" width="178.8" height="9.3"/>
			</g>
		</g>
		<g>
			<g>
				
					<rect x="244.5" y="157.9" transform="matrix(0.5 -0.866 0.866 0.5 -56.8928 320.5279)" fill="#F8E2D2" width="9.3" height="103.3"/>
			</g>
		</g>
		<g>
			<g>
				
					<rect x="322.2" y="23.3" transform="matrix(0.5 -0.866 0.866 0.5 98.538 320.5279)" fill="#F8E2D2" width="9.3" height="103.3"/>
			</g>
		</g>
		<g>
			<g>
				
					<rect x="197.5" y="70.3" transform="matrix(0.866 -0.5 0.5 0.866 -4.0872 134.6003)" fill="#F8E2D2" width="103.3" height="9.3"/>
			</g>
		</g>
		<g>
			<g>
				
					<rect x="322.3" y="30.4" transform="matrix(0.866 -0.5 0.5 0.866 -16.1168 179.5084)" fill="#F8E2D2" width="9.3" height="178.8"/>
			</g>
		</g>
		<g>
			<g>
				<rect x="205.6" y="90.6" fill="#F8E2D2" width="9.3" height="103.3"/>
			</g>
		</g>
		<g>
			<g>
				<rect x="361.1" y="90.6" fill="#F8E2D2" width="9.3" height="103.3"/>
			</g>
		</g>
		<g>
			<g>
				
					<rect x="281.9" y="205.5" transform="matrix(0.866 -0.5 0.5 0.866 -60.9771 191.4999)" fill="#F8E2D2" width="89.8" height="8.1"/>
			</g>
		</g>
		<path fill="#F8E2D2" d="M382.7,196.9c-5.4,9.3-17.3,12.5-26.6,7.1c-9.3-5.4-12.5-17.3-7.1-26.6c5.4-9.3,17.3-12.5,26.6-7.1
			C384.8,175.7,388,187.6,382.7,196.9"/>
		<path fill="#F8E2D2" d="M227.1,107.1c-5.4,9.3-17.3,12.5-26.6,7.1c-9.3-5.4-12.5-17.3-7.1-26.6c5.4-9.3,17.3-12.5,26.6-7.1
			C229.3,85.8,232.5,97.7,227.1,107.1"/>
		<path fill="#F8E2D2" d="M193.3,196.9c-5.4-9.3-2.2-21.2,7.1-26.6c9.3-5.4,21.2-2.2,26.6,7.1c5.4,9.3,2.2,21.2-7.1,26.6
			C210.6,209.4,198.7,206.2,193.3,196.9"/>
		<path fill="#F8E2D2" d="M348.9,107.1c-5.4-9.3-2.2-21.2,7.1-26.6c9.3-5.4,21.2-2.2,26.6,7.1c5.4,9.3,2.2,21.2-7.1,26.6
			C366.2,119.6,354.3,116.4,348.9,107.1"/>
		<path fill="#F8E2D2" d="M288,251.5c-10.8,0-19.5-8.7-19.5-19.5c0-10.8,8.7-19.5,19.5-19.5c10.8,0,19.5,8.7,19.5,19.5
			C307.5,242.8,298.8,251.5,288,251.5"/>
		<path fill="#F8E2D2" d="M288,71.9c-10.8,0-19.5-8.7-19.5-19.5c0-10.8,8.7-19.5,19.5-19.5c10.8,0,19.5,8.7,19.5,19.5
			C307.5,63.2,298.8,71.9,288,71.9"/>
	</g>
</g>
</svg>
